<svg width="218" height="273" viewBox="0 0 218 273" fill="none" xmlns="http://www.w3.org/2000/svg">
<path d="M81.4266 227.612C81.4266 228.718 81.0911 229.59 80.4207 230.226C79.7503 230.863 78.9294 231.182 77.9571 231.182C77.1863 231.182 76.4823 230.981 75.8455 230.578C76.5826 229.908 76.9517 228.969 76.9517 227.762C76.9517 226.791 76.7506 226.003 76.3479 225.4C75.9458 224.762 75.3591 224.444 74.5883 224.444C73.7168 224.444 72.9962 225.131 72.4261 226.506C71.89 227.847 71.6218 229.606 71.6218 231.785C71.6218 233.863 72.0069 235.539 72.7781 236.813C73.5825 238.054 74.7057 238.673 76.1469 238.673C77.1528 238.673 78.0072 238.489 78.7113 238.12C79.4489 237.752 80.1359 237.216 80.7727 236.512L81.3764 236.914C80.6724 237.919 79.7503 238.741 78.611 239.377C77.4712 240.014 76.1469 240.333 74.6385 240.333C72.2922 240.333 70.3647 239.545 68.8563 237.97C67.3479 236.394 66.5938 234.366 66.5938 231.886C66.5938 229.238 67.3811 227.126 68.9566 225.55C70.5321 223.975 72.6272 223.187 75.2417 223.187C77.0856 223.187 78.5774 223.606 79.7171 224.444C80.8565 225.249 81.4266 226.304 81.4266 227.612ZM89.2674 228.768C88.5634 229.17 87.7255 229.371 86.7532 229.371C86.0491 229.371 85.496 229.17 85.0939 228.768C84.6917 228.332 84.4906 227.729 84.4906 226.958C84.4906 225.818 85.0437 224.913 86.1499 224.243C87.2897 223.539 88.7645 223.187 90.5747 223.187C92.7199 223.187 94.3958 223.656 95.6027 224.595C96.8428 225.533 97.4631 226.807 97.4631 228.416V237.115C97.4631 238.054 97.7981 238.523 98.4685 238.523C99.1058 238.523 99.7256 238.271 100.329 237.769L100.732 238.271C99.491 239.646 98.0162 240.333 96.3067 240.333C95.3009 240.333 94.5301 240.081 93.9936 239.578C93.4911 239.076 93.1892 238.288 93.0885 237.216H92.8874C92.3513 238.187 91.6303 238.959 90.7256 239.528C89.8536 240.065 88.8482 240.333 87.7084 240.333C86.4348 240.333 85.4123 239.948 84.6416 239.176C83.8703 238.372 83.4847 237.333 83.4847 236.059C83.4847 234.618 84.1722 233.478 85.5462 232.64C86.9207 231.802 88.781 231.383 91.1278 231.383C91.5636 231.383 92.1834 231.416 92.9882 231.484V228.969C92.9882 227.327 92.7871 226.154 92.3849 225.45C91.9823 224.712 91.3289 224.343 90.4238 224.343C89.7869 224.343 89.284 224.545 88.9154 224.947C88.5464 225.349 88.3623 225.868 88.3623 226.506C88.3623 227.511 88.6637 228.265 89.2674 228.768ZM90.0216 237.819C91.9993 237.819 92.9882 236.025 92.9882 232.439C91.3118 232.439 90.0552 232.724 89.2168 233.293C88.3789 233.83 87.9601 234.601 87.9601 235.606C87.9601 236.277 88.1442 236.813 88.5132 237.216C88.8818 237.618 89.3848 237.819 90.0216 237.819ZM112.811 223.187C113.883 223.187 114.755 223.506 115.425 224.142C116.096 224.746 116.431 225.533 116.431 226.506C116.431 227.41 116.163 228.148 115.626 228.718C115.09 229.254 114.386 229.522 113.515 229.522C112.844 229.522 112.224 229.389 111.654 229.12C112.258 228.617 112.559 227.863 112.559 226.857C112.559 226.388 112.459 226.019 112.258 225.752C112.057 225.483 111.788 225.349 111.453 225.349C110.648 225.349 109.978 226.17 109.442 227.813C108.905 229.422 108.637 231.433 108.637 233.846C108.637 235.087 108.704 236.076 108.838 236.813C109.006 237.551 109.274 238.238 109.643 238.875L110.045 239.377L109.643 239.88H102.352L102.051 239.025L102.755 238.875C103.291 238.741 103.643 238.539 103.81 238.271C103.978 237.97 104.062 237.4 104.062 236.562V226.757C104.062 226.12 103.844 225.802 103.408 225.802H101.85L101.648 225.249C102.285 224.678 103.073 224.209 104.011 223.841C104.984 223.472 105.939 223.287 106.878 223.287C107.313 223.287 107.665 223.388 107.934 223.589C108.201 223.79 108.336 224.059 108.336 224.394V228.064H108.487C109.19 224.813 110.632 223.187 112.811 223.187ZM137.015 238.271C135.775 239.646 134.317 240.333 132.641 240.333C131.602 240.333 130.831 240.115 130.328 239.679C129.825 239.21 129.49 238.456 129.322 237.417C128.451 238.422 127.546 239.16 126.607 239.629C125.668 240.098 124.629 240.333 123.489 240.333C121.814 240.333 120.439 239.596 119.366 238.12C118.327 236.645 117.808 234.735 117.808 232.388C117.808 229.573 118.545 227.344 120.02 225.701C121.495 224.025 123.506 223.187 126.054 223.187C127.227 223.187 128.3 223.455 129.272 223.991V218.41C129.272 217.941 129.054 217.706 128.618 217.706H126.909L126.708 217.203C127.378 216.6 128.233 216.131 129.272 215.796C130.311 215.427 131.334 215.243 132.339 215.243C132.775 215.243 133.127 215.343 133.395 215.544C133.663 215.712 133.797 215.963 133.797 216.298V237.014C133.797 238.02 134.116 238.523 134.752 238.523C135.389 238.523 136.01 238.271 136.613 237.769L137.015 238.271ZM126.104 237.919C127.378 237.919 128.434 237.216 129.272 235.808V224.997C128.602 224.662 127.864 224.494 127.06 224.494C124.244 224.494 122.836 226.924 122.836 231.785C122.836 233.763 123.104 235.288 123.64 236.361C124.21 237.4 125.031 237.919 126.104 237.919ZM143.311 226.606C143.311 227.444 143.629 228.131 144.266 228.667C144.936 229.17 145.942 229.74 147.283 230.377C148.389 230.913 149.244 231.383 149.847 231.785C150.451 232.154 150.97 232.656 151.406 233.293C151.875 233.93 152.11 234.685 152.11 235.556C152.11 236.998 151.422 238.154 150.048 239.025C148.708 239.897 146.897 240.333 144.618 240.333C142.908 240.333 141.5 240.031 140.394 239.428C139.288 238.791 138.735 237.97 138.735 236.964C138.735 236.293 138.987 235.74 139.489 235.305C139.992 234.835 140.612 234.601 141.35 234.601C141.92 234.601 142.489 234.718 143.059 234.953C142.489 235.388 142.204 236.092 142.204 237.065C142.204 237.735 142.439 238.255 142.908 238.623C143.378 238.992 143.947 239.176 144.618 239.176C145.389 239.176 146.042 238.975 146.579 238.573C147.149 238.171 147.433 237.601 147.433 236.864C147.433 236.16 147.149 235.606 146.579 235.204C146.042 234.769 145.188 234.266 144.015 233.696C142.942 233.193 142.07 232.74 141.4 232.338C140.763 231.902 140.21 231.333 139.741 230.629C139.271 229.925 139.037 229.07 139.037 228.064C139.037 226.556 139.674 225.366 140.947 224.494C142.221 223.623 143.83 223.187 145.775 223.187C147.484 223.187 148.875 223.506 149.948 224.142C151.054 224.779 151.607 225.601 151.607 226.606C151.607 227.377 151.372 227.947 150.903 228.315C150.434 228.684 149.83 228.869 149.093 228.869C148.389 228.869 147.769 228.718 147.232 228.416C147.836 227.847 148.137 227.126 148.137 226.254C148.137 225.684 147.92 225.232 147.484 224.897C147.048 224.528 146.478 224.343 145.775 224.343C145.003 224.343 144.4 224.561 143.964 224.997C143.529 225.433 143.311 225.969 143.311 226.606Z" fill="white"/>
<path d="M78.6894 171.329C76.9724 171.329 75.7366 170.952 74.9829 170.198C74.2287 169.402 73.8516 168.125 73.8516 166.365V153.046H70.7104C70.7104 152.334 70.7521 151.873 70.8358 151.663C70.9196 151.454 71.1708 151.287 71.59 151.161C72.972 150.784 74.0612 150.197 74.857 149.402C75.6528 148.606 76.302 147.454 76.8049 145.946C76.9303 145.485 77.1399 145.213 77.4328 145.129C77.7261 145.003 78.4382 144.941 79.569 144.941V150.595H84.721C84.721 151.14 84.6372 151.642 84.4697 152.103C84.3023 152.522 84.0718 152.836 83.7785 153.046H79.569V167.182C79.569 168.439 80.0928 169.067 81.1398 169.067C81.6006 169.067 82.1031 168.92 82.6477 168.627C83.2344 168.334 83.7577 167.936 84.2185 167.433L84.721 168.062C82.9202 170.24 80.9094 171.329 78.6894 171.329Z" fill="white"/>
<path d="M94.5413 167.183C94.5413 168.439 94.9392 169.068 95.7355 169.068C96.5313 169.068 97.3059 168.754 98.0601 168.125L98.5625 168.754C97.013 170.471 95.191 171.329 93.0964 171.329C91.5885 171.329 90.4993 170.953 89.8294 170.199C89.1594 169.403 88.8239 168.125 88.8239 166.366V153.926C88.8239 153.34 88.5519 153.046 88.0073 153.046H86.0594L85.8711 152.355C86.709 151.643 87.7561 151.057 89.0127 150.596C90.2694 150.135 91.5256 149.905 92.7822 149.905C93.2852 149.905 93.7039 150.031 94.0389 150.282C94.3738 150.533 94.5413 150.868 94.5413 151.287V167.183Z" fill="white"/>
<path d="M121.804 167.183C121.804 168.439 122.202 169.068 122.998 169.068C123.794 169.068 124.569 168.754 125.322 168.125L125.825 168.754C124.275 170.471 122.453 171.329 120.359 171.329C118.851 171.329 117.762 170.953 117.092 170.199C116.464 169.403 116.15 168.125 116.15 166.366V156.753C116.15 154.324 115.375 153.109 113.825 153.109C112.317 153.109 111.081 154.136 110.118 156.188C109.197 158.24 108.736 160.921 108.736 164.23C108.736 165.487 108.84 166.513 109.05 167.309C109.259 168.062 109.594 168.795 110.055 169.507L110.558 170.136L110.055 170.764H100.945L100.568 169.696L101.447 169.507C102.118 169.34 102.557 169.089 102.767 168.754C102.976 168.377 103.081 167.664 103.081 166.617V154.366C103.081 153.57 102.809 153.172 102.265 153.172H100.254L100.065 152.481C100.903 151.769 101.95 151.182 103.207 150.721C104.463 150.261 105.72 150.031 106.977 150.031C107.521 150.031 107.94 150.156 108.233 150.408C108.568 150.659 108.736 150.994 108.736 151.413V156.816C109.322 154.848 110.369 153.214 111.877 151.916C113.385 150.575 114.977 149.905 116.652 149.905C118.453 149.905 119.752 150.491 120.548 151.664C121.385 152.837 121.804 154.701 121.804 157.256V167.183Z" fill="white"/>
<path d="M148.218 150.031V170.764C148.218 174.073 147.254 176.628 145.327 178.429C143.443 180.272 140.804 181.194 137.411 181.194C135.317 181.194 133.621 180.796 132.322 180C131.024 179.204 130.374 178.157 130.374 176.858C130.374 175.728 130.709 174.806 131.379 174.094C132.05 173.424 132.929 173.089 134.018 173.089C134.814 173.089 135.589 173.256 136.343 173.591C135.589 174.345 135.212 175.371 135.212 176.67C135.212 177.591 135.484 178.346 136.029 178.932C136.615 179.518 137.348 179.811 138.228 179.811C141.16 179.811 142.626 177.424 142.626 172.649V164.669C142.081 166.261 141.118 167.581 139.736 168.628C138.395 169.633 136.95 170.136 135.4 170.136C133.558 170.136 132.196 169.57 131.317 168.439C130.437 167.309 129.997 165.591 129.997 163.287V153.926C129.997 153.34 129.725 153.046 129.181 153.046H127.233L127.044 152.355C127.84 151.643 128.887 151.057 130.186 150.596C131.484 150.135 132.72 149.905 133.893 149.905C134.437 149.905 134.856 150.031 135.149 150.282C135.484 150.533 135.652 150.868 135.652 151.287V163.979C135.652 166.324 136.385 167.497 137.851 167.497C139.275 167.497 140.427 166.638 141.307 164.921C142.186 163.204 142.626 160.921 142.626 158.073C142.626 156.565 142.5 155.329 142.249 154.366C141.997 153.402 141.6 152.565 141.055 151.853L140.552 151.161L140.993 150.596L148.218 150.031Z" fill="white"/>
<path d="M85.5228 137.486C88.1804 136.497 90.2981 140.301 91.0249 142.326C92.0629 139.786 93.2264 135.152 96.6311 137.28C99.7552 139.232 96.3794 146.317 91.0249 146.96C87.0855 147.434 82.2004 138.722 85.5228 137.486Z" fill="#73C429"/>
<path d="M41.749 209.815C39.7384 209.815 38.1677 209.166 37.0368 207.867C35.9478 206.527 35.1938 204.391 34.775 201.459L33.4556 192.411C33.4136 192.076 33.3299 191.846 33.2042 191.721C33.0786 191.595 32.8901 191.532 32.6388 191.532H30.9424L30.7539 190.841C31.5916 190.087 32.5969 189.501 33.7697 189.081C34.9425 188.621 36.0944 188.391 37.2253 188.391C37.8536 188.391 38.2934 188.579 38.5447 188.956C38.8379 189.333 39.0683 190.066 39.2358 191.155L40.8694 202.464C41.1626 204.517 41.4977 205.92 41.8747 206.674C42.2516 207.428 42.8171 207.805 43.571 207.805C44.7439 207.805 45.6653 207.093 46.3355 205.669C47.0476 204.202 47.4036 202.276 47.4036 199.888C47.4036 197.459 47.0894 194.967 46.4612 192.411C46.3774 192.076 46.2936 191.846 46.2099 191.721C46.1261 191.595 45.9376 191.532 45.6444 191.532H44.0108L43.8223 190.841C44.6182 190.087 45.6025 189.501 46.7753 189.081C47.9482 188.621 49.1211 188.391 50.2935 188.391C50.8802 188.391 51.3197 188.6 51.6131 189.019C51.9064 189.396 52.1156 190.108 52.2414 191.155L53.8122 202.15C54.1472 204.412 54.5035 205.92 54.8801 206.674C55.2993 207.428 55.8018 207.805 56.388 207.805C57.5193 207.805 58.4196 206.967 59.0896 205.292C59.8017 203.574 60.158 201.354 60.158 198.632C60.158 196.789 59.9696 195.197 59.5926 193.857C59.2576 192.474 58.6917 191.26 57.8959 190.213L57.3934 189.521L57.8334 189.019L63.1108 188.391C63.2367 190.024 63.2996 191.469 63.2996 192.725C63.2996 198.087 62.5246 202.276 60.9746 205.292C59.4667 208.307 57.2888 209.815 54.4406 209.815C52.7231 209.815 51.4248 209.375 50.5452 208.496C49.6657 207.616 48.9323 206.004 48.3461 203.658C47.5082 207.763 45.3093 209.815 41.749 209.815Z" fill="white"/>
<path d="M75.0887 205.669C75.0887 206.925 75.4866 207.553 76.2824 207.553C77.0782 207.553 77.8532 207.239 78.6069 206.611L79.1094 207.239C77.5599 208.956 75.7378 209.815 73.6437 209.815C72.1358 209.815 71.0467 209.438 70.3762 208.684C69.7063 207.889 69.3713 206.611 69.3713 204.852V192.411C69.3713 191.825 69.0988 191.532 68.5542 191.532H66.6067L66.418 190.841C67.2559 190.129 68.3029 189.542 69.5596 189.081C70.8162 188.621 72.0729 188.391 73.3295 188.391C73.832 188.391 74.2508 188.516 74.5857 188.767C74.9212 189.019 75.0887 189.354 75.0887 189.773V205.669Z" fill="white"/>
<path d="M86.7066 192.663C86.7066 193.71 87.1045 194.569 87.9004 195.239C88.7383 195.867 89.9945 196.579 91.6703 197.375C93.0524 198.045 94.1202 198.632 94.8744 199.134C95.6281 199.595 96.2777 200.223 96.8223 201.019C97.4085 201.815 97.7019 202.757 97.7019 203.847C97.7019 205.647 96.8431 207.093 95.1256 208.181C93.4503 209.271 91.1882 209.815 88.3404 209.815C86.2042 209.815 84.4446 209.438 83.0625 208.684C81.6805 207.889 80.9893 206.862 80.9893 205.606C80.9893 204.768 81.3034 204.077 81.9317 203.532C82.5601 202.946 83.3346 202.653 84.2563 202.653C84.9683 202.653 85.6804 202.799 86.3925 203.092C85.6804 203.637 85.3246 204.517 85.3246 205.731C85.3246 206.569 85.6175 207.218 86.2042 207.679C86.7904 208.14 87.5025 208.37 88.3404 208.37C89.3037 208.37 90.1203 208.119 90.7903 207.616C91.5024 207.114 91.8586 206.402 91.8586 205.48C91.8586 204.6 91.5024 203.909 90.7903 203.407C90.1203 202.862 89.0525 202.234 87.5862 201.522C86.2458 200.893 85.1566 200.328 84.3192 199.825C83.5234 199.281 82.8321 198.569 82.2459 197.689C81.6592 196.81 81.3663 195.741 81.3663 194.485C81.3663 192.6 82.1622 191.113 83.7538 190.024C85.3454 188.935 87.3558 188.391 89.7853 188.391C91.9216 188.391 93.6599 188.789 95.0003 189.584C96.3823 190.38 97.0735 191.406 97.0735 192.663C97.0735 193.626 96.7802 194.338 96.194 194.799C95.6073 195.26 94.8536 195.49 93.9319 195.49C93.0524 195.49 92.2774 195.302 91.6074 194.925C92.3611 194.213 92.7382 193.312 92.7382 192.223C92.7382 191.511 92.4661 190.946 91.9216 190.527C91.377 190.066 90.6649 189.836 89.7853 189.836C88.822 189.836 88.0679 190.108 87.5233 190.652C86.9787 191.197 86.7066 191.867 86.7066 192.663Z" fill="white"/>
<path d="M125.042 207.239C123.492 208.957 121.67 209.815 119.576 209.815C118.277 209.815 117.314 209.543 116.686 208.999C116.057 208.412 115.638 207.47 115.429 206.171C114.34 207.428 113.209 208.349 112.036 208.936C110.863 209.522 109.565 209.815 108.141 209.815C106.047 209.815 104.329 208.894 102.989 207.051C101.691 205.208 101.041 202.82 101.041 199.888C101.041 196.37 101.963 193.584 103.806 191.532C105.648 189.438 108.162 188.391 111.345 188.391C112.811 188.391 114.152 188.726 115.366 189.396V182.422C115.366 181.835 115.094 181.542 114.55 181.542H112.413L112.162 180.914C113 180.16 114.068 179.574 115.366 179.155C116.664 178.694 117.942 178.464 119.199 178.464C119.743 178.464 120.183 178.589 120.518 178.84C120.853 179.05 121.021 179.364 121.021 179.783V205.669C121.021 206.925 121.419 207.553 122.214 207.553C123.01 207.553 123.785 207.239 124.539 206.611L125.042 207.239ZM111.408 206.8C113 206.8 114.319 205.92 115.366 204.161V190.652C114.528 190.234 113.607 190.024 112.602 190.024C109.083 190.024 107.324 193.061 107.324 199.134C107.324 201.605 107.659 203.511 108.329 204.852C109.041 206.15 110.068 206.8 111.408 206.8Z" fill="white"/>
<path d="M126.688 199.134C126.688 195.825 127.63 193.207 129.515 191.281C131.442 189.354 134.039 188.391 137.306 188.391C140.573 188.391 143.17 189.375 145.097 191.343C147.023 193.27 147.987 195.867 147.987 199.134C147.987 202.401 147.023 204.998 145.097 206.925C143.17 208.852 140.573 209.815 137.306 209.815C134.039 209.815 131.442 208.852 129.515 206.925C127.63 204.998 126.688 202.401 126.688 199.134ZM141.641 199.26C141.641 196.453 141.243 194.171 140.447 192.411C139.651 190.611 138.647 189.71 137.432 189.71C136.091 189.71 135.002 190.589 134.164 192.349C133.327 194.066 132.908 196.328 132.908 199.134C132.908 201.982 133.285 204.244 134.039 205.92C134.834 207.595 135.882 208.433 137.18 208.433C138.479 208.433 139.547 207.595 140.384 205.92C141.222 204.202 141.641 201.982 141.641 199.26Z" fill="white"/>
<path d="M170.591 190.087C171.387 191.176 171.805 192.914 171.847 195.302H171.973C172.559 193.291 173.523 191.637 174.863 190.338C176.203 189.04 177.627 188.391 179.135 188.391C180.936 188.391 182.235 188.998 183.031 190.213C183.868 191.385 184.287 193.228 184.287 195.741V205.669C184.287 206.925 184.685 207.553 185.481 207.553C186.277 207.553 187.052 207.239 187.806 206.611L188.308 207.239C186.758 208.956 184.936 209.815 182.842 209.815C181.292 209.815 180.204 209.417 179.575 208.621C178.947 207.784 178.633 206.339 178.633 204.286V195.239C178.633 192.809 177.837 191.595 176.245 191.595C174.905 191.595 173.858 192.726 173.104 194.988C172.35 197.208 171.973 199.783 171.973 202.715C172.014 204.014 172.12 205.04 172.287 205.794C172.497 206.548 172.832 207.281 173.292 207.993L173.795 208.621L173.292 209.25H166.318V195.239C166.318 192.809 165.523 191.595 163.931 191.595C162.591 191.595 161.543 192.726 160.789 194.988C160.035 197.208 159.658 199.783 159.658 202.715C159.658 204.014 159.742 205.04 159.91 205.794C160.119 206.548 160.475 207.281 160.978 207.993L161.481 208.621L160.978 209.25H151.867L151.491 208.181L152.37 207.993C153.04 207.826 153.48 207.574 153.689 207.239C153.899 206.862 154.004 206.15 154.004 205.103V192.851C154.004 192.223 153.732 191.909 153.187 191.909H151.177L150.988 191.281C151.826 190.568 152.873 189.982 154.129 189.521C155.386 189.061 156.643 188.83 157.899 188.83C158.443 188.83 158.863 188.956 159.156 189.207C159.491 189.417 159.658 189.731 159.658 190.15V195.302C160.203 193.375 161.124 191.741 162.423 190.401C163.721 189.061 165.187 188.391 166.821 188.391C168.538 188.391 169.795 188.956 170.591 190.087Z" fill="white"/>
<path d="M66.3714 176.916C69.029 175.928 71.1467 179.731 71.8735 181.757C72.9115 179.216 74.0754 174.583 77.4797 176.71C80.6038 178.662 77.2279 185.747 71.8735 186.391C67.9346 186.865 63.049 178.152 66.3714 176.916Z" fill="#25C8AF"/>
<path d="M86.5259 21.0983C91.2908 20.9258 95.419 22.39 98.9093 25.4915C100.533 26.7147 101.865 28.1785 102.904 29.8841C104.749 31.9684 105.681 34.3647 105.7 37.0727C104.713 35.7082 103.382 35.176 101.706 35.4754C102.122 37.1047 102.921 38.5694 104.102 39.8685C103.902 40.0015 103.703 40.1348 103.503 40.2677C101.495 39.7084 99.6729 38.854 98.0359 37.7057L97.7104 37.4723L97.4057 37.3069C91.0443 33.8067 87.4177 28.404 86.5259 21.0983ZM122.877 19.9002C125.873 17.9274 129.202 16.9954 132.863 17.1048C132.971 19.0751 132.705 20.9385 132.064 22.6956C130.484 29.9137 126.33 35.0572 119.604 38.1262L119.281 38.2707C118.273 38.7659 117.208 39.232 116.086 39.6684C115.509 39.9804 114.977 39.9138 114.488 39.4689C116.255 36.038 118.785 33.3086 122.077 31.2818C123.506 30.5422 123.906 29.4777 123.276 28.0872C121.52 27.7006 119.922 28.0334 118.482 29.0857L118.376 29.2003C118.121 29.4602 117.815 29.6652 117.461 29.8153L117.284 29.8841C115.233 31.8514 113.569 34.1148 112.291 36.6735C112.167 33.5205 113.032 30.7249 114.887 28.2868L115.063 27.9541C116.839 24.6492 119.336 22.0282 122.552 20.0915L122.877 19.9002ZM117.409 36.8661C117.336 36.9195 117.26 36.9713 117.183 37.0209C117.299 36.9465 117.411 36.8677 117.518 36.7848L117.409 36.8661Z" fill="#73C429"/>
<path fill-rule="evenodd" clip-rule="evenodd" d="M107.298 45.459C107.828 51.6513 107.828 57.908 107.298 64.2291C107.056 64.1794 106.923 64.0465 106.898 63.8298C107.296 57.776 107.43 51.6527 107.298 45.459Z" fill="#252825"/>
<path d="M127.67 56.0428C130.416 55.2905 133.213 54.9579 136.059 55.044C135.014 64.3894 130.087 70.7129 121.279 74.014C113.768 77.3728 112.836 76.3078 118.483 70.8189C120.711 68.9377 123.175 67.4071 125.873 66.2262C126.144 65.3882 126.077 64.5896 125.673 63.8302C123.044 63.7436 120.647 64.476 118.483 66.0265C116.419 67.5571 114.621 69.3545 113.09 71.4184C113.296 69.1426 114.161 67.1459 115.686 65.4275L115.957 65.0092C118.788 60.7274 122.692 57.7386 127.67 56.0428ZM82.9312 55.4434C93.3156 55.247 100.838 59.773 105.5 69.0215C105.834 69.9483 105.968 70.8809 105.9 71.8172C103.413 68.7428 100.417 66.2801 96.9119 64.4292C95.7513 63.9031 94.5528 63.7692 93.317 64.0294C92.6044 64.4557 92.4048 65.0552 92.7175 65.8268C95.3486 67.5751 97.9457 69.372 100.507 71.2182C101.93 72.4394 103.128 73.8375 104.103 75.4116C95.1556 74.6698 88.5643 70.2767 84.3293 62.2329C83.4199 60.0607 82.9539 57.7977 82.9312 55.4434Z" fill="#25C8AF"/>
<path fill-rule="evenodd" clip-rule="evenodd" d="M107.298 80.2036C107.829 87.9929 107.829 95.8469 107.298 103.766C107.056 103.717 106.923 103.584 106.898 103.367C107.297 95.7154 107.43 87.9938 107.298 80.2036Z" fill="#242724"/>
<path d="M119.681 17.1041C124.672 13.6436 130.131 12.5117 136.059 13.7094C136.335 14.1355 136.535 14.6015 136.658 15.1071C136.914 19.4849 136.315 23.7451 134.86 27.8869C130.134 37.7767 122.278 43.2346 111.292 44.2609C111.226 50.9184 111.292 57.5744 111.492 64.2291C117.735 54.6197 126.589 50.4263 138.056 51.6489C139.968 52.7669 140.568 54.4309 139.854 56.6409C139.256 61.4281 137.458 65.6878 134.461 69.4208C134.194 69.8202 133.929 70.2195 133.662 70.6188C127.929 75.9464 121.138 79.008 113.289 79.8043H111.292C111.226 87.7928 111.292 95.7802 111.492 103.766C111.779 103.549 111.978 103.282 112.091 102.967C122.372 88.0331 136.485 78.7814 154.434 75.2116C157.117 74.9405 159.779 74.5411 162.423 74.0136C164.021 73.7472 165.619 73.7472 167.217 74.0136C167.788 74.1991 168.254 74.5326 168.615 75.0119C168.814 77.4046 168.881 79.801 168.814 82.2007C175.21 81.1433 177.607 83.8056 176.005 90.1878C180.338 88.027 184.133 88.6927 187.389 92.1844C189.398 95.7774 189.198 99.2384 186.79 102.568C185.723 103.501 184.524 104.234 183.194 104.765C171.603 108.56 160.152 112.621 148.841 116.945C141.994 119.072 135.204 121.402 128.469 123.934C127.025 124.311 125.561 124.578 124.075 124.732C123.422 126.11 122.622 127.375 121.678 128.527C120.148 130.153 118.416 131.484 116.485 132.52C107.094 135.781 99.7704 133.252 94.5153 124.933C90.5726 124.085 86.7114 122.953 82.9305 121.538C66.2212 115.704 49.5772 109.713 32.9986 103.567C28.6149 98.91 28.7477 94.4503 33.3978 90.1878C33.8811 90.0151 34.2808 89.7487 34.5963 89.3891C35.5183 89.224 36.4507 89.0906 37.3927 88.9893C39.1043 89.4501 40.8352 89.8495 42.5856 90.1878C42.5193 88.0535 42.5859 85.9239 42.7852 83.798C43.2514 83.332 43.7172 82.8664 44.1834 82.4004C46.0428 82.2007 47.907 82.1345 49.7759 82.2007C49.7097 79.9339 49.7764 77.6705 49.9756 75.4112C50.4606 74.7928 51.0596 74.3273 51.7731 74.0136C67.7003 74.4588 81.9478 79.5176 94.5153 89.1895C99.3224 93.3914 103.45 98.1171 106.899 103.367C106.922 103.583 107.055 103.717 107.298 103.766C107.828 95.8474 107.828 87.9929 107.298 80.2036C98.7712 79.7348 91.4475 76.5397 85.3274 70.6188C81.8002 66.6255 79.6697 61.9666 78.9363 56.6409C78.8705 55.3034 78.9368 53.972 79.136 52.6477C89.6226 50.1547 98.4106 53.083 105.501 61.4333C106.057 62.1875 106.523 62.9862 106.899 63.8298C106.922 64.0465 107.055 64.1799 107.298 64.2291C107.828 57.908 107.828 51.6512 107.298 45.459C107.267 44.9598 107 44.627 106.499 44.4606C99.0002 43.5476 92.742 40.286 87.7244 34.6762C85.7031 31.7564 84.1716 28.5615 83.1302 25.0915C82.6263 22.98 82.4929 20.8499 82.7309 18.7014C91.7877 16.3943 99.3773 18.9241 105.501 26.2896C106.632 28.0199 107.764 29.7508 108.895 31.4811C110.999 25.5242 114.595 20.7319 119.681 17.1041ZM56.1671 78.2065C55.4621 77.8228 54.663 77.6899 53.7706 77.8077C53.6438 79.4854 53.7768 81.0832 54.1695 82.5996C64.4015 83.7228 73.8558 86.9842 82.5317 92.3841C84.719 93.9374 84.6518 95.3355 82.3315 96.5775C73.1541 90.6576 63.1018 87.3291 52.1728 86.5933C50.2533 86.1992 48.2557 86.0658 46.1808 86.194C46.0502 88.0766 46.1834 89.9403 46.58 91.7851C48.2676 92.4811 49.9988 93.0138 51.7731 93.3824C60.7153 96.7828 69.7698 99.9779 78.9363 102.967C87.9974 106.52 97.1847 109.849 106.499 112.951C106.632 112.818 106.765 112.685 106.898 112.552C106.434 111.411 105.902 110.345 105.3 109.357C104.65 107.524 103.785 105.794 102.704 104.166C91.1863 88.52 75.6736 79.8668 56.1671 78.2065ZM165.219 77.8077C164.197 77.687 163.264 77.82 162.423 78.2065C151.9 79.1358 142.181 82.3304 133.262 87.7913L132.802 88.0691C123.163 93.9317 116.126 102.093 111.692 112.552C112.037 112.984 112.437 113.051 112.891 112.752C117.175 111.037 121.436 109.373 125.673 107.76L128.584 106.733C143.144 101.611 157.753 96.6281 172.41 91.7851V86.194H167.616C165.653 86.1391 163.789 86.405 162.023 86.9931C153.115 88.2091 144.859 91.2041 137.257 95.9785C135.022 96.7421 134.157 96.0102 134.66 93.7817C135.294 93.1529 135.934 92.5648 136.58 92.0174L136.858 91.7851L137.668 91.3101C146.059 86.4609 155.109 83.5572 164.82 82.5996C165.212 81.0832 165.346 79.4854 165.219 77.8077Z" fill="white"/>
<path d="M34.3965 94.5807C35.2956 93.1324 36.5608 92.6668 38.1913 93.183C58.6203 99.9073 78.8564 107.054 98.898 114.626L102.904 116.146C105.262 117.002 107.659 117.601 110.094 117.944C133.625 109.103 157.326 100.784 181.197 92.9834C184.247 93.616 185.379 95.4796 184.593 98.574C184.127 99.5723 183.395 100.305 182.396 100.771C163.678 107.297 144.971 113.887 126.272 120.539C125.681 119.949 125.082 119.35 124.474 118.742C123.687 118.545 122.887 118.478 122.078 118.542C120.173 127.026 114.846 130.686 106.1 129.525C104.472 129.053 103.007 128.321 101.705 127.328C99.0058 125.06 97.2746 122.198 96.5124 118.742C95.7133 118.476 94.9146 118.476 94.1155 118.742C93.5075 119.35 92.9081 119.949 92.318 120.539C73.9286 114.011 55.4867 107.555 36.9931 101.17C34.0724 99.788 33.2065 97.5917 34.3965 94.5807ZM109.263 119.062L110.094 119.341C109.539 119.157 108.986 118.969 108.435 118.777C108.71 118.873 108.987 118.969 109.263 119.062Z" fill="#D84824"/>
<path d="M85.6177 20.9119C90.5657 20.7333 94.8524 22.2492 98.4761 25.4602C100.057 26.6476 101.371 28.0543 102.418 29.6806L102.625 30.0086L102.801 30.212C104.6 32.3221 105.509 34.7355 105.528 37.4518C104.503 36.039 103.121 35.4876 101.38 35.7977C101.813 37.4847 102.643 39.001 103.869 40.3461C103.661 40.4838 103.454 40.6219 103.246 40.7596C101.023 40.1418 99.0179 39.1769 97.2318 37.8653C90.4299 34.2472 86.5587 28.5962 85.6177 20.9119ZM123.364 19.6713C126.476 17.6286 129.933 16.6637 133.734 16.777C133.846 18.8171 133.57 20.7467 132.904 22.566C131.238 30.1581 126.813 35.5337 119.631 38.6924L119.235 38.8832C118.307 39.3252 117.332 39.7441 116.312 40.1395C115.714 40.4624 115.161 40.3935 114.654 39.933C116.488 36.3806 119.116 33.5548 122.535 31.4563C124.018 30.6904 124.433 29.5878 123.779 28.148C121.956 27.7478 120.296 28.0925 118.801 29.1821C118.802 29.1036 118.807 29.0273 118.816 28.9534L118.833 28.8443C118.812 28.9517 118.802 29.0646 118.801 29.1821C118.474 29.5546 118.059 29.83 117.557 30.0086C115.427 32.0455 113.699 34.389 112.372 37.0382C112.243 33.7738 113.142 30.8794 115.069 28.355L115.25 28.0103C117.156 24.4744 119.861 21.6946 123.364 19.6713Z" fill="#73C429"/>
<path d="M128.341 55.5608C131.193 54.782 134.096 54.4376 137.052 54.527C135.966 64.2031 130.851 70.7504 121.704 74.1683C113.906 77.6459 112.937 76.543 118.801 70.8602C121.115 68.9123 123.673 67.3277 126.475 66.1051C126.756 65.2374 126.687 64.4104 126.267 63.624C123.537 63.5346 121.048 64.2926 118.801 65.8979C116.657 67.4829 114.791 69.3438 113.201 71.4804C113.415 69.1242 114.313 67.0566 115.897 65.2781C118.858 60.6125 123.005 57.3734 128.341 55.5608ZM81.8843 54.9405C92.6675 54.7371 100.48 59.4235 105.32 68.9993C105.667 69.9588 105.806 70.9245 105.735 71.894C103.153 68.7107 100.042 66.161 96.402 64.2443C95.1969 63.6992 93.9521 63.5611 92.669 63.8308C91.9294 64.2722 91.7222 64.8925 92.0468 65.6916C94.7792 67.5014 97.4751 69.3622 100.135 71.2737C101.613 72.5379 102.857 73.9852 103.869 75.6152C94.5781 74.8473 87.7337 70.2985 83.3359 61.9704C82.392 59.7216 81.9079 57.3781 81.8843 54.9405Z" fill="#25C8AF"/>
</svg>
