<svg width="179" height="79" viewBox="0 0 179 79" fill="none" xmlns="http://www.w3.org/2000/svg">
<path d="M95.0759 57.0687C95.0759 57.6317 94.9052 58.0752 94.5641 58.3994C94.2228 58.7236 93.8048 58.8857 93.3101 58.8857C92.9176 58.8857 92.5593 58.7833 92.2352 58.5786C92.6105 58.2373 92.7983 57.7597 92.7983 57.1454C92.7983 56.6507 92.6958 56.2498 92.4911 55.9426C92.2863 55.6185 91.9878 55.4564 91.5953 55.4564C91.1518 55.4564 90.785 55.8061 90.495 56.5057C90.222 57.188 90.0854 58.0838 90.0854 59.1928C90.0854 60.2506 90.2816 61.1036 90.6741 61.7519C91.0835 62.3832 91.6551 62.6987 92.3887 62.6987C92.9005 62.6987 93.3356 62.6049 93.6939 62.4173C94.0692 62.2295 94.419 61.9565 94.743 61.5984L95.0502 61.8031C94.692 62.3149 94.2228 62.7329 93.6427 63.0571C93.0626 63.3813 92.3887 63.5434 91.621 63.5434C90.4267 63.5434 89.4456 63.1424 88.6779 62.3406C87.9102 61.5385 87.5264 60.5065 87.5264 59.2439C87.5264 57.8961 87.9273 56.8212 88.7292 56.0194C89.531 55.2175 90.5974 54.8166 91.9281 54.8166C92.8664 54.8166 93.6256 55.0299 94.2057 55.4564C94.7858 55.8659 95.0759 56.4032 95.0759 57.0687ZM99.0666 57.6572C98.7082 57.8619 98.2816 57.9644 97.7869 57.9644C97.4286 57.9644 97.1471 57.8619 96.9424 57.6572C96.7376 57.4355 96.6353 57.1284 96.6353 56.7359C96.6353 56.156 96.9167 55.6952 97.4798 55.3539C98.0599 54.9958 98.8105 54.8166 99.7319 54.8166C100.824 54.8166 101.677 55.0554 102.291 55.5331C102.922 56.0109 103.238 56.6591 103.238 57.4781V61.9055C103.238 62.3832 103.408 62.622 103.75 62.622C104.074 62.622 104.39 62.494 104.697 62.2381L104.901 62.494C104.27 63.1935 103.519 63.5434 102.649 63.5434C102.137 63.5434 101.745 63.4154 101.472 63.1595C101.216 62.9034 101.063 62.5025 101.011 61.9565H100.909C100.636 62.4515 100.269 62.8438 99.8086 63.1338C99.3651 63.4068 98.8533 63.5434 98.2732 63.5434C97.6248 63.5434 97.1045 63.3471 96.7121 62.9546C96.3197 62.5453 96.1235 62.0164 96.1235 61.368C96.1235 60.6344 96.4732 60.0543 97.1727 59.6277C97.8722 59.2013 98.8191 58.988 100.013 58.988C100.235 58.988 100.551 59.005 100.96 59.0392V57.7597C100.96 56.9237 100.858 56.3265 100.653 55.9682C100.448 55.5929 100.116 55.4051 99.6551 55.4051C99.3309 55.4051 99.075 55.5076 98.8874 55.7123C98.6996 55.917 98.6058 56.1815 98.6058 56.5057C98.6058 57.0175 98.7594 57.4013 99.0666 57.6572ZM99.4504 62.2637C100.457 62.2637 100.96 61.3509 100.96 59.5255C100.107 59.5255 99.4675 59.6705 99.0409 59.9605C98.6144 60.2335 98.4011 60.6258 98.4011 61.1376C98.4011 61.4789 98.4949 61.7519 98.6825 61.9565C98.8703 62.1614 99.1262 62.2637 99.4504 62.2637ZM111.049 54.8166C111.595 54.8166 112.039 54.9787 112.38 55.3029C112.721 55.61 112.892 56.0109 112.892 56.5057C112.892 56.9663 112.755 57.3417 112.482 57.6317C112.209 57.9047 111.851 58.0411 111.408 58.0411C111.066 58.0411 110.751 57.9728 110.461 57.8364C110.768 57.5805 110.921 57.1966 110.921 56.6848C110.921 56.446 110.87 56.2582 110.768 56.1218C110.665 55.9852 110.529 55.917 110.358 55.917C109.949 55.917 109.608 56.335 109.335 57.1709C109.062 57.9899 108.925 59.0137 108.925 60.242C108.925 60.8733 108.959 61.3766 109.028 61.7519C109.113 62.1273 109.249 62.477 109.437 62.8012L109.642 63.0571L109.437 63.313H105.726L105.573 62.8779L105.931 62.8012C106.204 62.7329 106.383 62.6304 106.468 62.494C106.554 62.3406 106.596 62.0505 106.596 61.6239V56.6336C106.596 56.3094 106.485 56.1473 106.264 56.1473H105.47L105.368 55.8659C105.692 55.5759 106.093 55.337 106.571 55.1492C107.066 54.9616 107.552 54.8678 108.029 54.8678C108.251 54.8678 108.43 54.919 108.567 55.0213C108.703 55.1237 108.772 55.2601 108.772 55.4308V57.2989H108.848C109.207 55.644 109.94 54.8166 111.049 54.8166ZM123.369 62.494C122.737 63.1935 121.995 63.5434 121.142 63.5434C120.613 63.5434 120.221 63.4325 119.965 63.2105C119.709 62.9717 119.538 62.5879 119.453 62.059C119.009 62.5708 118.549 62.9462 118.071 63.185C117.593 63.4239 117.065 63.5434 116.484 63.5434C115.632 63.5434 114.932 63.1679 114.386 62.4173C113.857 61.6665 113.593 60.6941 113.593 59.4998C113.593 58.0668 113.968 56.9321 114.719 56.0961C115.469 55.2431 116.493 54.8166 117.79 54.8166C118.387 54.8166 118.933 54.953 119.427 55.226V52.3854C119.427 52.1465 119.317 52.0272 119.095 52.0272H118.225L118.122 51.7713C118.464 51.4642 118.899 51.2253 119.427 51.0546C119.956 50.867 120.477 50.7732 120.989 50.7732C121.21 50.7732 121.39 50.8242 121.526 50.9267C121.662 51.012 121.731 51.14 121.731 51.3105V61.8543C121.731 62.3661 121.893 62.622 122.217 62.622C122.541 62.622 122.857 62.494 123.164 62.2381L123.369 62.494ZM117.815 62.3149C118.464 62.3149 119.001 61.9566 119.427 61.2401V55.738C119.086 55.5672 118.711 55.4821 118.301 55.4821C116.868 55.4821 116.152 56.719 116.152 59.1928C116.152 60.1994 116.288 60.9757 116.561 61.5216C116.851 62.0505 117.269 62.3149 117.815 62.3149ZM126.573 56.5569C126.573 56.9833 126.735 57.333 127.059 57.606C127.4 57.8619 127.912 58.152 128.594 58.4762C129.157 58.7491 129.593 58.988 129.9 59.1928C130.207 59.3804 130.471 59.6363 130.693 59.9605C130.932 60.2847 131.051 60.6686 131.051 61.1121C131.051 61.8457 130.701 62.4344 130.002 62.8779C129.32 63.3214 128.398 63.5434 127.238 63.5434C126.368 63.5434 125.651 63.3897 125.088 63.0826C124.526 62.7586 124.244 62.3406 124.244 61.8286C124.244 61.4875 124.372 61.2059 124.628 60.9841C124.884 60.7453 125.199 60.6258 125.575 60.6258C125.865 60.6258 126.155 60.6857 126.445 60.805C126.155 61.0267 126.01 61.3851 126.01 61.8798C126.01 62.2211 126.129 62.4856 126.368 62.6732C126.607 62.8608 126.897 62.9546 127.238 62.9546C127.63 62.9546 127.963 62.8524 128.236 62.6475C128.526 62.4428 128.671 62.1528 128.671 61.7775C128.671 61.4192 128.526 61.1376 128.236 60.9329C127.963 60.7112 127.528 60.4553 126.931 60.1652C126.385 59.9093 125.941 59.6789 125.6 59.4742C125.276 59.2525 124.995 58.9624 124.756 58.6041C124.517 58.2458 124.398 57.8109 124.398 57.2989C124.398 56.5312 124.722 55.9256 125.37 55.4821C126.018 55.0384 126.837 54.8166 127.827 54.8166C128.697 54.8166 129.405 54.9787 129.951 55.3029C130.514 55.6269 130.795 56.0449 130.795 56.5569C130.795 56.9492 130.676 57.2392 130.437 57.4269C130.198 57.6146 129.891 57.7084 129.516 57.7084C129.157 57.7084 128.842 57.6317 128.569 57.4781C128.876 57.188 129.03 56.8212 129.03 56.3777C129.03 56.0877 128.919 55.8573 128.697 55.6867C128.475 55.499 128.185 55.4051 127.827 55.4051C127.434 55.4051 127.127 55.516 126.905 55.738C126.684 55.9597 126.573 56.2327 126.573 56.5569Z" fill="white"/>
<path d="M90.9454 27.0543C90.0796 27.0543 89.4565 26.8644 89.0765 26.4842C88.6963 26.0829 88.5062 25.4389 88.5062 24.5518V17.836H86.9224C86.9224 17.477 86.9434 17.2448 86.9857 17.1392C87.0279 17.0335 87.1547 16.9491 87.3659 16.8858C88.0628 16.6957 88.6119 16.4 89.013 15.9988C89.4143 15.5975 89.7418 15.0167 89.9952 14.2565C90.0585 14.0242 90.1641 13.8869 90.3119 13.8446C90.4598 13.7813 90.8188 13.7496 91.3889 13.7496V16.6006H93.9866C93.9866 16.8752 93.9443 17.1286 93.8598 17.361C93.7754 17.5721 93.6592 17.7304 93.5114 17.836H91.3889V24.9637C91.3889 25.5971 91.6529 25.914 92.181 25.914C92.4132 25.914 92.6666 25.8401 92.9412 25.6923C93.2369 25.5444 93.5008 25.3437 93.7332 25.0903L93.9866 25.4072C93.0785 26.5054 92.0648 27.0543 90.9454 27.0543Z" fill="white"/>
<path d="M98.938 24.9637C98.938 25.5972 99.1385 25.9141 99.5398 25.9141C99.9411 25.9141 100.332 25.7556 100.712 25.4389L100.965 25.7556C100.184 26.6215 99.2653 27.0544 98.2094 27.0544C97.449 27.0544 96.9 26.8644 96.5621 26.4842C96.2241 26.083 96.0553 25.4389 96.0553 24.5518V18.2796C96.0553 17.9839 95.9179 17.836 95.6434 17.836H94.6614L94.5664 17.4876C94.9887 17.1287 95.5168 16.833 96.1502 16.6006C96.7839 16.3683 97.4173 16.2522 98.0509 16.2522C98.3044 16.2522 98.5155 16.3156 98.6846 16.4423C98.8535 16.569 98.938 16.738 98.938 16.9492V24.9637Z" fill="white"/>
<path d="M112.684 24.9637C112.684 25.5972 112.884 25.9141 113.286 25.9141C113.687 25.9141 114.078 25.7556 114.458 25.4389L114.711 25.7556C113.93 26.6215 113.011 27.0544 111.955 27.0544C111.195 27.0544 110.646 26.8644 110.308 26.4842C109.991 26.083 109.833 25.4389 109.833 24.5518V19.7051C109.833 18.4803 109.442 17.8679 108.661 17.8679C107.9 17.8679 107.277 18.3851 106.792 19.42C106.327 20.4549 106.095 21.8065 106.095 23.4749C106.095 24.1083 106.147 24.6258 106.253 25.027C106.359 25.4072 106.528 25.7768 106.76 26.1358L107.013 26.4526L106.76 26.7693H102.166L101.977 26.2308L102.42 26.1358C102.758 26.0513 102.98 25.9245 103.085 25.7556C103.191 25.5655 103.244 25.2065 103.244 24.6786V18.5013C103.244 18.1001 103.106 17.8995 102.832 17.8995H101.818L101.723 17.551C102.145 17.192 102.674 16.8963 103.307 16.6641C103.941 16.4317 104.574 16.3156 105.208 16.3156C105.482 16.3156 105.693 16.3789 105.841 16.5056C106.01 16.6324 106.095 16.8013 106.095 17.0125V19.7367C106.39 18.7443 106.918 17.9206 107.679 17.2659C108.439 16.5902 109.241 16.2522 110.086 16.2522C110.994 16.2522 111.649 16.5479 112.05 17.1393C112.473 17.7305 112.684 18.6704 112.684 19.9585V24.9637Z" fill="white"/>
<path d="M126.001 16.3156V26.7693C126.001 28.4378 125.516 29.7259 124.544 30.634C123.594 31.5633 122.263 32.0279 120.553 32.0279C119.497 32.0279 118.641 31.8272 117.987 31.4259C117.332 31.0249 117.005 30.4968 117.005 29.8421C117.005 29.272 117.174 28.8072 117.511 28.4482C117.849 28.1103 118.293 27.9414 118.842 27.9414C119.243 27.9414 119.634 28.0259 120.014 28.1948C119.634 28.575 119.444 29.0925 119.444 29.7472C119.444 30.2117 119.581 30.5918 119.856 30.8875C120.151 31.1831 120.521 31.331 120.965 31.331C122.443 31.331 123.182 30.1272 123.182 27.7196V23.6966C122.907 24.4991 122.422 25.1643 121.725 25.6923C121.049 26.1991 120.32 26.4526 119.539 26.4526C118.61 26.4526 117.923 26.1675 117.48 25.5972C117.036 25.027 116.815 24.1612 116.815 22.9997V18.2796C116.815 17.9839 116.677 17.836 116.403 17.836H115.421L115.326 17.4876C115.727 17.1287 116.255 16.833 116.91 16.6006C117.564 16.3683 118.187 16.2522 118.779 16.2522C119.053 16.2522 119.264 16.3156 119.412 16.4423C119.581 16.569 119.666 16.738 119.666 16.9492V23.3481C119.666 24.5308 120.035 25.122 120.774 25.122C121.492 25.122 122.073 24.6891 122.517 23.8233C122.96 22.9574 123.182 21.8065 123.182 20.3704C123.182 19.6101 123.118 18.9871 122.992 18.5013C122.865 18.0157 122.665 17.5932 122.39 17.2342L122.136 16.8858L122.358 16.6006L126.001 16.3156Z" fill="white"/>
<path d="M94.3908 9.99074C95.7308 9.49225 96.7985 11.41 97.1649 12.4312C97.6883 11.1504 98.2751 8.81429 99.9915 9.88688C101.567 10.8711 99.8645 14.4432 97.1649 14.7679C95.1789 15.0067 92.7156 10.6138 94.3908 9.99074Z" fill="#73C429"/>
<path d="M91.7288 46.2085C90.7151 46.2085 89.923 45.8812 89.3529 45.2265C88.8038 44.5506 88.4237 43.4736 88.2124 41.9954L87.5473 37.4337C87.5261 37.2646 87.4838 37.1486 87.4205 37.0851C87.3572 37.0218 87.262 36.9902 87.1354 36.9902H86.28L86.1851 36.6418C86.6074 36.2616 87.1142 35.9659 87.7056 35.7547C88.2969 35.5224 88.8777 35.4062 89.4478 35.4062C89.7647 35.4062 89.9865 35.5013 90.1131 35.6914C90.261 35.8814 90.3771 36.251 90.4617 36.8001L91.2852 42.5022C91.4331 43.5369 91.602 44.2445 91.7921 44.6245C91.9822 45.0047 92.2673 45.1948 92.6475 45.1948C93.2387 45.1948 93.7034 44.8358 94.0412 44.1177C94.4003 43.3787 94.5798 42.4071 94.5798 41.2033C94.5798 39.9785 94.4214 38.7218 94.1047 37.4337C94.0624 37.2646 94.0201 37.1486 93.9779 37.0851C93.9356 37.0218 93.8406 36.9902 93.6928 36.9902H92.8692L92.7741 36.6418C93.1753 36.2616 93.6717 35.9659 94.2629 35.7547C94.8543 35.5224 95.4457 35.4062 96.037 35.4062C96.3327 35.4062 96.5543 35.5119 96.7021 35.7231C96.85 35.9132 96.9556 36.2722 97.019 36.8001L97.8109 42.3438C97.9798 43.4842 98.1593 44.2445 98.3494 44.6245C98.5606 45.0047 98.814 45.1948 99.1097 45.1948C99.68 45.1948 100.134 44.7724 100.472 43.9278C100.831 43.0618 101.01 41.9425 101.01 40.5698C101.01 39.6405 100.915 38.838 100.725 38.1623C100.556 37.4654 100.271 36.8529 99.8699 36.3249L99.6165 35.9765L99.8383 35.7231L102.499 35.4062C102.563 36.2299 102.594 36.9585 102.594 37.592C102.594 40.2952 102.204 42.4071 101.422 43.9278C100.662 45.4483 99.5638 46.2085 98.1277 46.2085C97.2618 46.2085 96.6072 45.9868 96.1636 45.5432C95.7201 45.0997 95.3505 44.2867 95.055 43.104C94.6325 45.1736 93.5239 46.2085 91.7288 46.2085Z" fill="white"/>
<path d="M108.539 44.1177C108.539 44.7513 108.739 45.068 109.141 45.068C109.542 45.068 109.932 44.9098 110.313 44.5929L110.566 44.9098C109.785 45.7756 108.866 46.2085 107.81 46.2085C107.05 46.2085 106.501 46.0184 106.163 45.6384C105.825 45.2371 105.656 44.5929 105.656 43.706V37.4337C105.656 37.138 105.519 36.9902 105.244 36.9902H104.262L104.167 36.6418C104.589 36.2826 105.117 35.9869 105.751 35.7547C106.385 35.5224 107.018 35.4062 107.652 35.4062C107.905 35.4062 108.116 35.4697 108.285 35.5963C108.454 35.7231 108.539 35.892 108.539 36.1031V44.1177Z" fill="white"/>
<path d="M114.396 37.5603C114.396 38.0884 114.597 38.5213 114.998 38.8592C115.421 39.176 116.054 39.535 116.899 39.9362C117.596 40.2742 118.135 40.5698 118.515 40.8233C118.895 41.0555 119.222 41.3724 119.497 41.7736C119.792 42.1749 119.94 42.6501 119.94 43.1992C119.94 44.1072 119.507 44.8358 118.641 45.3849C117.797 45.9339 116.656 46.2085 115.22 46.2085C114.143 46.2085 113.256 46.0184 112.559 45.6384C111.862 45.2371 111.514 44.7197 111.514 44.086C111.514 43.6637 111.672 43.3152 111.989 43.0407C112.306 42.745 112.696 42.5972 113.161 42.5972C113.52 42.5972 113.879 42.6711 114.238 42.8189C113.879 43.0934 113.699 43.5369 113.699 44.1493C113.699 44.5718 113.847 44.8992 114.143 45.1315C114.439 45.3637 114.798 45.4799 115.22 45.4799C115.706 45.4799 116.118 45.3531 116.456 45.0997C116.815 44.8463 116.994 44.4873 116.994 44.0227C116.994 43.5792 116.815 43.2308 116.456 42.9774C116.118 42.7028 115.579 42.386 114.84 42.027C114.164 41.7101 113.615 41.4251 113.193 41.1716C112.791 40.8972 112.443 40.5382 112.147 40.0947C111.852 39.6511 111.704 39.1127 111.704 38.479C111.704 37.5287 112.105 36.779 112.908 36.2299C113.71 35.6808 114.724 35.4062 115.949 35.4062C117.026 35.4062 117.902 35.6069 118.578 36.0082C119.275 36.4094 119.623 36.9269 119.623 37.5603C119.623 38.0461 119.476 38.4051 119.18 38.6375C118.884 38.8697 118.504 38.9859 118.039 38.9859C117.596 38.9859 117.205 38.8909 116.867 38.7008C117.247 38.3418 117.438 37.8877 117.438 37.3386C117.438 36.9796 117.3 36.6945 117.026 36.4833C116.751 36.251 116.392 36.1348 115.949 36.1348C115.463 36.1348 115.083 36.2722 114.808 36.5467C114.534 36.8213 114.396 37.1591 114.396 37.5603Z" fill="white"/>
<path d="M133.725 44.9098C132.943 45.7756 132.025 46.2085 130.969 46.2085C130.314 46.2085 129.828 46.0713 129.511 45.7966C129.195 45.501 128.983 45.0258 128.878 44.3711C128.329 45.0047 127.759 45.4693 127.167 45.765C126.576 46.0607 125.921 46.2085 125.203 46.2085C124.147 46.2085 123.281 45.7439 122.606 44.8146C121.951 43.8855 121.624 42.6817 121.624 41.2033C121.624 39.4294 122.088 38.0251 123.017 36.9902C123.947 35.9342 125.214 35.4062 126.819 35.4062C127.558 35.4062 128.234 35.5752 128.846 35.9132V32.3968C128.846 32.1012 128.709 31.9533 128.434 31.9533H127.357L127.231 31.6366C127.653 31.2564 128.192 30.9607 128.846 30.7495C129.501 30.5173 130.145 30.4012 130.779 30.4012C131.053 30.4012 131.275 30.4645 131.444 30.5913C131.613 30.6968 131.697 30.8551 131.697 31.0664V44.1177C131.697 44.7513 131.898 45.0681 132.299 45.0681C132.7 45.0681 133.091 44.9098 133.471 44.5929L133.725 44.9098ZM126.85 44.688C127.653 44.688 128.318 44.2445 128.846 43.3574V36.5467C128.424 36.3355 127.959 36.2299 127.452 36.2299C125.678 36.2299 124.791 37.761 124.791 40.8233C124.791 42.0693 124.96 43.0301 125.298 43.706C125.657 44.3607 126.175 44.688 126.85 44.688Z" fill="white"/>
<path d="M134.555 40.8233C134.555 39.1549 135.03 37.835 135.98 36.8634C136.952 35.892 138.261 35.4062 139.908 35.4062C141.556 35.4062 142.865 35.9026 143.837 36.8952C144.808 37.8666 145.294 39.176 145.294 40.8233C145.294 42.4706 144.808 43.7799 143.837 44.7513C142.865 45.7227 141.556 46.2085 139.908 46.2085C138.261 46.2085 136.952 45.7227 135.98 44.7513C135.03 43.7799 134.555 42.4706 134.555 40.8233ZM142.094 40.8866C142.094 39.4716 141.894 38.3206 141.492 37.4337C141.091 36.5256 140.584 36.0715 139.972 36.0715C139.296 36.0715 138.747 36.515 138.324 37.402C137.902 38.2679 137.691 39.4083 137.691 40.8233C137.691 42.2592 137.881 43.3997 138.261 44.2445C138.662 45.0893 139.19 45.5116 139.845 45.5116C140.5 45.5116 141.038 45.0893 141.461 44.2445C141.883 43.3787 142.094 42.2592 142.094 40.8866Z" fill="white"/>
<path d="M156.69 36.2616C157.092 36.8107 157.303 37.6871 157.324 38.8909H157.387C157.683 37.8772 158.169 37.0429 158.844 36.3882C159.52 35.7335 160.238 35.4062 160.999 35.4062C161.907 35.4062 162.561 35.7125 162.963 36.3249C163.385 36.9163 163.596 37.8454 163.596 39.1127V44.1177C163.596 44.7513 163.797 45.068 164.198 45.068C164.599 45.068 164.99 44.9098 165.37 44.5929L165.624 44.9098C164.842 45.7756 163.923 46.2085 162.867 46.2085C162.086 46.2085 161.537 46.0078 161.22 45.6065C160.903 45.1842 160.745 44.4556 160.745 43.4208V38.8592C160.745 37.6342 160.344 37.0218 159.541 37.0218C158.865 37.0218 158.338 37.592 157.957 38.7324C157.577 39.8517 157.387 41.1506 157.387 42.6288C157.408 43.2835 157.461 43.801 157.546 44.1812C157.651 44.5612 157.82 44.9308 158.052 45.2898L158.306 45.6065L158.052 45.9234H154.536V38.8592C154.536 37.6342 154.135 37.0218 153.332 37.0218C152.657 37.0218 152.129 37.592 151.749 38.7324C151.368 39.8517 151.178 41.1506 151.178 42.6288C151.178 43.2835 151.22 43.801 151.305 44.1812C151.411 44.5612 151.59 44.9308 151.844 45.2898L152.097 45.6065L151.844 45.9234H147.25L147.06 45.3849L147.504 45.2898C147.842 45.2053 148.063 45.0787 148.169 44.9098C148.274 44.7197 148.327 44.3607 148.327 43.8326V37.6555C148.327 37.3386 148.19 37.1803 147.915 37.1803H146.902L146.807 36.8634C147.229 36.5044 147.757 36.2087 148.391 35.9765C149.024 35.7441 149.658 35.628 150.291 35.628C150.566 35.628 150.777 35.6914 150.925 35.8181C151.094 35.9236 151.178 36.0821 151.178 36.2932V38.8909C151.453 37.9193 151.917 37.0958 152.572 36.42C153.227 35.7441 153.966 35.4062 154.79 35.4062C155.655 35.4062 156.289 35.6914 156.69 36.2616Z" fill="white"/>
<path d="M104.143 29.3824C105.483 28.884 106.551 30.8018 106.917 31.8229C107.441 30.5421 108.027 28.2059 109.744 29.2786C111.319 30.2628 109.617 33.835 106.917 34.1595C104.931 34.3983 102.468 30.0056 104.143 29.3824Z" fill="#25C8AF"/>
<path d="M37.9683 16.3247C40.0302 16.25 41.8166 16.8835 43.3268 18.2257C43.9856 18.7219 44.5333 19.3098 44.9695 19.9893L45.0553 20.1267C45.8537 21.0285 46.2573 22.0656 46.2654 23.2374C45.8385 22.6468 45.2623 22.4164 44.5369 22.5461C44.7174 23.2511 45.063 23.8849 45.5739 24.4471C45.4874 24.5046 45.4011 24.5623 45.3146 24.6198C44.3879 24.3616 43.5526 23.9582 42.8082 23.4101L42.6763 23.3386C39.9235 21.8241 38.3541 19.4862 37.9683 16.3247ZM53.6981 15.8062C54.9948 14.9526 56.4353 14.5492 58.0194 14.5965C58.0663 15.4492 57.951 16.2556 57.6738 17.016C56.9792 20.1891 55.1355 22.4357 52.1426 23.7558L51.9777 23.8357C51.5905 24.0203 51.1844 24.1953 50.7596 24.3608C50.51 24.4957 50.2796 24.4667 50.0683 24.2742C50.8331 22.7895 51.9279 21.6086 53.3525 20.7315C53.9709 20.4115 54.1437 19.9507 53.8711 19.3489C53.1112 19.1817 52.4197 19.3257 51.7968 19.7812C51.6603 19.9368 51.4874 20.052 51.2782 20.1267L51.1137 20.2877C50.3014 21.1008 49.6359 22.0265 49.1176 23.0645C49.0639 21.7001 49.4384 20.4904 50.241 19.4354C51.0387 17.8889 52.1911 16.6792 53.6981 15.8062ZM52.0227 22.1508C52.0047 22.2111 51.9846 22.2696 51.9624 22.3263C51.9772 22.2885 51.9911 22.25 52.0042 22.2106C52.0106 22.1909 52.0168 22.171 52.0227 22.1508ZM53.3928 18.7092C53.382 18.738 53.373 18.7675 53.3659 18.7978C53.3624 18.8129 53.3593 18.8283 53.3568 18.8437C53.3488 18.8903 53.3452 18.9384 53.3457 18.9881C53.3459 19.0047 53.3465 19.0214 53.3477 19.0383C53.3488 19.0552 53.3502 19.0725 53.3522 19.0897L53.3525 19.0899C53.3362 18.9513 53.3497 18.8243 53.3928 18.7092Z" fill="#73C429"/>
<path fill-rule="evenodd" clip-rule="evenodd" d="M46.957 26.8664C47.1864 29.546 47.1864 32.2535 46.957 34.9887C46.8521 34.9673 46.7945 34.9098 46.7842 34.816C46.9562 32.1965 47.0141 29.5466 46.957 26.8664Z" fill="white"/>
<path d="M55.7724 31.4462C56.9608 31.1206 58.1709 30.9766 59.4025 31.0139C58.9502 35.058 56.8183 37.7942 53.0067 39.2227C49.7567 40.6763 49.3533 40.2153 51.7967 37.8403C52.7611 37.0263 53.8271 36.3638 54.9946 35.8529C55.1118 35.4902 55.083 35.1447 54.9083 34.816C53.7705 34.7785 52.7333 35.0953 51.7967 35.7663C50.9036 36.4288 50.1258 37.2065 49.4632 38.0993C49.552 37.1147 49.9268 36.2506 50.5867 35.5073L50.7039 35.3261C51.9288 33.4733 53.6183 32.1801 55.7724 31.4462ZM36.4126 31.1868C40.9063 31.1017 44.1618 33.0605 46.179 37.0624C46.3237 37.4635 46.3812 37.8669 46.3519 38.2722C45.2759 36.9418 43.9795 35.8761 42.4626 35.075C41.9603 34.8473 41.4417 34.7896 40.9068 34.9023C40.5987 35.0868 40.5122 35.3459 40.6476 35.68C41.7861 36.4363 42.9096 37.2141 44.0183 38.013C44.6338 38.5413 45.1526 39.1463 45.5739 39.8275C41.7024 39.5065 38.8501 37.6056 37.0176 34.1247C36.6242 33.1849 36.4224 32.2056 36.4126 31.1868Z" fill="#25C8AF"/>
<path fill-rule="evenodd" clip-rule="evenodd" d="M46.957 41.9014C47.1866 45.2719 47.1866 48.6707 46.957 52.0974C46.8521 52.0761 46.7945 52.0184 46.7842 51.9246C46.9566 48.6136 47.0141 45.2724 46.957 41.9014Z" fill="white"/>
<path d="M52.3152 14.5965C54.4749 13.0991 56.8373 12.6094 59.4023 13.1277C59.5218 13.3121 59.6081 13.5138 59.6616 13.7325C59.7724 15.6269 59.5131 17.4703 58.8837 19.2626C56.8382 23.5422 53.4391 25.9038 48.6853 26.348C48.6564 29.2287 48.6853 32.1091 48.7718 34.9887C51.473 30.8304 55.3048 29.0159 60.2666 29.5451C61.094 30.0288 61.3534 30.7489 61.0444 31.7052C60.7857 33.7768 60.0077 35.62 58.7108 37.2353C58.5956 37.4082 58.4804 37.5809 58.3651 37.7538C55.8841 40.0591 52.9457 41.3838 49.5496 41.7286H48.6853C48.6564 45.1853 48.6853 48.6418 48.7718 52.0975C48.8956 52.0035 48.9821 51.8883 49.031 51.7519C53.4795 45.2895 59.5869 41.286 67.3537 39.7412C68.5145 39.6238 69.6669 39.4511 70.8109 39.2227C71.5023 39.1075 72.1936 39.1075 72.8851 39.2227C73.1324 39.3031 73.3341 39.4473 73.4901 39.6548C73.5764 40.6902 73.6052 41.7271 73.5766 42.7654C76.3443 42.3078 77.3813 43.4601 76.6879 46.2218C78.563 45.2867 80.2052 45.5747 81.6143 47.0858C82.4835 48.6404 82.397 50.1382 81.3549 51.579C80.8934 51.9829 80.3748 52.2998 79.7993 52.5296C74.7832 54.1719 69.8282 55.9289 64.9337 57.8003C61.9707 58.7206 59.0323 59.7287 56.1181 60.8246C55.4934 60.988 54.8595 61.1033 54.2166 61.1703C53.9338 61.7661 53.5882 62.3136 53.1795 62.8121C52.5174 63.5155 51.7681 64.0918 50.9324 64.5401C46.8684 65.9512 43.6995 64.8565 41.4253 61.2566C39.7194 60.8897 38.0484 60.4003 36.4125 59.7877C29.1821 57.2631 21.9796 54.6708 14.8056 52.0111C12.9087 49.996 12.9662 48.0663 14.9784 46.2218C15.1876 46.147 15.3605 46.0317 15.497 45.8761C15.8959 45.8045 16.2993 45.7471 16.7069 45.7034C17.4476 45.9027 18.1966 46.0756 18.9541 46.2218C18.9254 45.2983 18.9542 44.3766 19.0406 43.4567C19.2423 43.255 19.4438 43.0537 19.6455 42.852C20.4502 42.7658 21.2567 42.7368 22.0655 42.7654C22.0368 41.7846 22.0657 40.8052 22.1519 39.8277C22.3617 39.56 22.6211 39.3585 22.9298 39.2227C29.8218 39.4155 35.9872 41.6046 41.4253 45.7897C43.5056 47.6079 45.2916 49.653 46.7837 51.9246C46.7942 52.0184 46.8517 52.0761 46.9566 52.0975C47.1862 48.6708 47.1862 45.2719 46.9566 41.9013C43.2671 41.6984 40.0979 40.316 37.4496 37.7538C35.9233 36.0258 35.0012 34.0097 34.684 31.7052C34.6555 31.1263 34.6843 30.5503 34.7704 29.977C39.3082 28.8984 43.1109 30.1657 46.1788 33.7791C46.4198 34.1053 46.6213 34.4509 46.7837 34.8158C46.7942 34.9098 46.8517 34.9673 46.9566 34.9887C47.186 32.2535 47.186 29.546 46.9566 26.8666C46.9434 26.6505 46.828 26.5064 46.6109 26.4343C43.3662 26.0394 40.658 24.6279 38.4868 22.2003C37.6122 20.9369 36.9497 19.5544 36.499 18.0528C36.2809 17.1391 36.2231 16.2175 36.3262 15.2878C40.2451 14.2895 43.5293 15.3842 46.1788 18.5714C46.6686 19.3202 47.1585 20.0692 47.6481 20.8179C48.5585 18.2403 50.1143 16.1664 52.3152 14.5965ZM24.8312 41.0374C24.5263 40.8714 24.1804 40.8135 23.794 40.8646C23.7393 41.5907 23.797 42.2818 23.9669 42.9381C28.3945 43.4241 32.4855 44.8355 36.2397 47.1722C37.1862 47.8442 37.1574 48.4492 36.1533 48.9867C32.1821 46.425 27.832 44.9849 23.1027 44.6665C22.2722 44.4959 21.4078 44.4381 20.5099 44.4936C20.4533 45.3082 20.511 46.1147 20.6827 46.9131C21.413 47.2141 22.1621 47.4446 22.9298 47.6044C26.7992 49.0757 30.7177 50.4583 34.6842 51.7519C38.6049 53.2895 42.5807 54.7296 46.611 56.0721C46.6687 56.0146 46.7264 55.9571 46.7839 55.8996C46.5834 55.4057 46.3528 54.9446 46.0926 54.5169C45.8112 53.7237 45.4364 52.9749 44.9689 52.2703C39.9849 45.5002 33.2722 41.7557 24.8312 41.0374ZM72.0209 40.8646C71.6062 40.8155 71.2257 40.8632 70.8796 41.0073L70.8109 41.0374L70.5977 41.057C66.1262 41.4828 61.9911 42.8587 58.1923 45.1849L57.993 45.3049C53.8221 47.8419 50.7773 51.3733 48.8582 55.8996C49.0077 56.0865 49.1805 56.1152 49.3768 55.9857C51.2309 55.2441 53.0748 54.5239 54.9082 53.8256C61.6257 51.4526 68.3672 49.1484 75.1322 46.9131V44.4936H73.058C72.2085 44.4697 71.4019 44.5848 70.638 44.8392C66.7829 45.3654 63.2106 46.6617 59.921 48.7276C58.9541 49.0583 58.5795 48.7414 58.7975 47.7771C59.0714 47.505 59.3484 47.2502 59.6282 47.0134L59.7482 46.9131L59.9232 46.8095C63.6036 44.6497 67.5786 43.3593 71.8481 42.9381C72.0179 42.2818 72.0758 41.5907 72.0209 40.8646Z" fill="white"/>
<path d="M15.4111 48.1227C15.8002 47.496 16.3477 47.2943 17.0532 47.5177C26.4828 50.6215 35.817 53.9339 45.0558 57.4547L45.2473 57.5228C46.2058 57.8568 47.1792 58.0933 48.1672 58.2324C58.3498 54.4069 68.6059 50.8068 78.9356 47.4315C80.2551 47.7053 80.745 48.5118 80.4049 49.851C80.2032 50.2829 79.8863 50.5997 79.4541 50.8014C71.3547 53.6253 63.2594 56.4767 55.1679 59.3556C54.9125 59.1002 54.6531 58.8411 54.3901 58.5781C54.0704 58.4979 53.7465 58.4675 53.4185 58.4871L53.3529 58.4916C52.5285 62.1626 50.2239 63.7466 46.4387 63.244C45.7345 63.04 45.1005 62.7231 44.5373 62.2935C43.3692 61.3118 42.62 60.0734 42.2902 58.5781C41.9445 58.4627 41.5987 58.4627 41.253 58.5781C40.99 58.8411 40.7306 59.1002 40.4752 59.3556C32.5176 56.5309 24.5374 53.737 16.5347 50.9742C15.2708 50.3762 14.8961 49.4257 15.4111 48.1227Z" fill="#D84824"/>
<path d="M37.5757 16.2442C39.7167 16.1669 41.5717 16.8228 43.1398 18.2124C43.8239 18.7262 44.3928 19.3348 44.8457 20.0386L44.9349 20.1808L45.0113 20.2686C45.7898 21.1817 46.1831 22.2262 46.1914 23.4014C45.748 22.7902 45.1497 22.5515 44.3964 22.6858C44.5837 23.4158 44.9427 24.0719 45.4734 24.6539C45.3836 24.7136 45.2939 24.7734 45.2042 24.8329C44.3021 24.5823 43.4832 24.1996 42.7475 23.685L42.6014 23.5804L42.4644 23.5063C39.606 21.9381 37.9764 19.5175 37.5757 16.2442ZM53.9094 15.7073C55.2559 14.8235 56.7517 14.4059 58.3967 14.4549C58.4454 15.3377 58.3258 16.1727 58.0379 16.9599C57.3167 20.2452 55.4019 22.5714 52.2941 23.9383C51.841 24.16 51.3623 24.369 50.8581 24.5646C50.5989 24.7043 50.3596 24.6745 50.1402 24.4751C50.9342 22.9379 52.071 21.715 53.5504 20.8069C54.1925 20.4756 54.372 19.9986 54.0889 19.3754C53.2998 19.2024 52.582 19.3514 51.9351 19.8229L51.9081 19.8526C51.7707 19.9989 51.6002 20.1083 51.3966 20.1808C50.4751 21.0622 49.7271 22.0762 49.153 23.2224C49.0973 21.8098 49.4861 20.5573 50.3197 19.4649L50.3982 19.3159C51.2231 17.7858 52.3936 16.5829 53.9094 15.7073Z" fill="#73C429"/>
<path d="M56.0627 31.2378C57.2966 30.9009 58.5531 30.7517 59.8319 30.7905C59.3622 34.9776 57.1486 37.8106 53.1909 39.2897C49.8161 40.7946 49.3971 40.3174 51.9344 37.8582C52.9356 37.0154 54.0426 36.3295 55.255 35.8005C55.369 35.4486 55.3496 35.1122 55.1973 34.791L55.1652 34.7268C53.9838 34.6882 52.9068 35.0162 51.9344 35.711C51.0069 36.3968 50.1991 37.202 49.5111 38.1265C49.6034 37.107 49.9924 36.2124 50.6779 35.4427L50.7994 35.2552C52.0713 33.3368 53.8258 31.9977 56.0627 31.2378ZM35.9595 30.9695C40.6257 30.8813 44.0062 32.9093 46.1008 37.053C46.2511 37.4682 46.3108 37.886 46.2803 38.3055C45.1631 36.928 43.8167 35.8247 42.2417 34.9953C41.7201 34.7595 41.1816 34.6998 40.6262 34.8165C40.3062 35.0073 40.2165 35.2756 40.3571 35.6215C41.5395 36.4046 42.7061 37.21 43.8572 38.0372C44.4964 38.5843 45.0349 39.2106 45.4725 39.9158C41.4523 39.5834 38.4907 37.6152 36.5878 34.0112C36.1792 33.0381 35.9697 32.0243 35.9595 30.9695Z" fill="#25C8AF"/>
</svg>
