<svg width="24" height="24" viewBox="0 0 24 24" fill="none" xmlns="http://www.w3.org/2000/svg">
<path d="M2.5 12C2.5 7.522 2.5 5.282 3.891 3.891C5.282 2.5 7.521 2.5 12 2.5C16.478 2.5 18.718 2.5 20.109 3.891C21.5 5.282 21.5 7.521 21.5 12C21.5 16.478 21.5 18.718 20.109 20.109C18.718 21.5 16.479 21.5 12 21.5C7.522 21.5 5.282 21.5 3.891 20.109C2.5 18.718 2.5 16.479 2.5 12Z" stroke="white" stroke-width="1.5" stroke-linecap="round" stroke-linejoin="round"/>
<path d="M10.5359 11.008C9.71589 10.892 7.84589 11.083 6.92989 12.778C6.01389 14.473 6.93689 16.237 7.51389 16.907C8.08289 17.534 9.89189 18.721 11.8109 17.562C12.2869 17.275 12.8799 17.06 13.5519 14.815L13.4739 5.98096C13.3439 6.95396 14.4189 9.23596 17.4779 9.50596" stroke="white" stroke-width="1.5" stroke-linecap="round" stroke-linejoin="round"/>
</svg>
